PathFileType	4	(X/Y/Z)	59_2_59_p1_0-211_filt_butterworth.trc
DataRate	CameraRate	NumFrames	NumMarkers	Units	OrigDataRate	OrigDataStartFrame	OrigNumFrames
40.0	40.0	5	27	m	40.0	26	211
Frame#	Time	RHip			RKnee			RAnkle			RBigToe			RSmallToe			RHeel			LHip			LKnee			LAnkle			LBigToe			LSmallToe			LHeel			Neck			Head			Nose			RShoulder			RElbow			RWrist			RThumb			RIndex			RPinky			LShoulder			LElbow			LWrist			LThumb			LIndex			LPinky			
		X1	Y1	Z1	X2	Y2	Z2	X3	Y3	Z3	X4	Y4	Z4	X5	Y5	Z5	X6	Y6	Z6	X7	Y7	Z7	X8	Y8	Z8	X9	Y9	Z9	X10	Y10	Z10	X11	Y11	Z11	X12	Y12	Z12	X13	Y13	Z13	X14	Y14	Z14	X15	Y15	Z15	X16	Y16	Z16	X17	Y17	Z17	X18	Y18	Z18	X19	Y19	Z19	X20	Y20	Z20	X21	Y21	Z21	X22	Y22	Z22	X23	Y23	Z23	X24	Y24	Z24	X25	Y25	Z25	X26	Y26	Z26	X27	Y27	Z27	
26	0.65	0.30826166615881767	0.462458573189098	1.1192590848685628	0.29180203407483374	0.5678168500794155	1.5270509658900813	0.28917839256213046	0.6969908259487105	1.8974287907086547	0.28257204200299163	0.5761378584758098	1.9516302153878087	0.3411558693497899	0.5769929747543421	1.9346251878851848	0.2750357908571663	0.7951656565863934	1.9517435163412675	0.10041248298288763	0.4595884337597455	1.101463575489125	0.11750370415003669	0.6119635862748474	1.531108405956195	0.10867514796440979	0.7140971682003567	1.8881462699422285	0.12029611697089648	0.5593195325601001	1.9357492133636376	0.06789119336633753	0.6034639815794896	1.919554851422175	0.12101860329214773	0.7710582111468862	1.9314649644832187	0.23720919296756515	0.39871832981646	0.5143335642018496	0.23924108371262698	0.3548972071209849	0.25641164082391615	0.2428200509142412	0.32750637860326415	0.38304223649416747	0.39100919550959845	0.4150179169106846	0.6221926496180327	0.41535326706258646	0.35489372207865755	0.8807415147075752	0.24268506952876467	0.263515834351369	1.0326104199904664	0.16969059612462817	0.23422455922635632	1.0379122742634206	0.18066301379158217	0.2171217009134409	1.1144948737751175	0.16001043826728428	0.24342770418081128	1.1274097407507335	0.07183704442331001	0.4249420491216946	0.6050608239027836	0.06590259714735763	0.39007526960319644	0.8559679325696028	0.16558209657863487	0.30252511621576317	1.043789616276029	0.23814238094454682	0.275351896249504	1.1495539918544595	0.24748191381138487	0.3212659272788756	1.1649527771807051	0.19697762079059894	0.29025494353148157	1.1565492773439146
27	0.675	0.3079058237126358	0.4624084135338285	1.1204720530692913	0.2932039258650418	0.5678228813571685	1.5278876448121719	0.2881207304413889	0.7023549033375759	1.900923783311156	0.2832651810333692	0.5773993794555276	1.9541341361096112	0.34114989523001144	0.5774749112877793	1.9349529293451673	0.2726630444226277	0.7949711387269184	1.9532436908351274	0.09851451565597397	0.4566882592035231	1.1027737590116693	0.1155574454508637	0.6155839123176942	1.5322026389001648	0.10812038682947939	0.7141494918946641	1.885368049914413	0.12027159067905999	0.5593547162030335	1.9345059980462533	0.0678188289344554	0.6035237985515209	1.9197766458375	0.12084625862359573	0.7704252284486621	1.9330732529825672	0.23717718352552492	0.3992294324513992	0.5143077867766934	0.24147614280582508	0.3549899390862522	0.25742828978098853	0.2426994441845511	0.32732001664053284	0.38297417139070455	0.3951222574652476	0.4215564353037455	0.6220835311226973	0.41729591811352834	0.3546710473923369	0.8793443535178982	0.24608457874550338	0.260982437057931	1.0331622175816746	0.15370146657207953	0.2586097609403547	1.0251649609080729	0.16370242607094257	0.22046325909736708	1.0951887605015225	0.15802762635144113	0.23558029473571546	1.1159525796840024	0.07272176281172898	0.42873473428081554	0.6050316574459609	0.06160517022502124	0.3988987679966012	0.8558140246229076	0.1569952040348249	0.31459797212433477	1.0435817113629668	0.19925937645782388	0.2493259734141838	1.1225617579273464	0.22927610171667606	0.31966677446994923	1.1490314718337558	0.19898704150165117	0.29409770226413046	1.1528382321228596
28	0.7	0.3077099866380211	0.45641085321692854	1.116909320456862	0.29339078325471224	0.5677669741817215	1.5276446416789338	0.2879269825574591	0.7017180743240263	1.899686142909141	0.28361466213515235	0.5785279581198879	1.9561070973441979	0.34135374404874014	0.5774021644109557	1.9350550397621022	0.2726334683194674	0.7950400880032242	1.9533118182719633	0.09709471327334862	0.4558474754678299	1.105750491281838	0.11422425972189398	0.6163475289098502	1.5301428631319438	0.1081103348196634	0.7139937012344597	1.8837408555246298	0.12045480305947989	0.5594148028751462	1.9318154485713779	0.0678413402900511	0.6034610203267008	1.9197772925382113	0.12087415875989004	0.7703881229110913	1.9331412162352646	0.23714665802228338	0.3995276968592718	0.5130928189225943	0.2415515858886293	0.35563162217513555	0.25796335872229825	0.24259373522970257	0.32667930579514004	0.3831024363197999	0.3973074170668903	0.42455613384975066	0.6220987371049161	0.4189089283263891	0.3536269321005394	0.8744258545636137	0.2539649890630574	0.25649119198794235	1.0320263733086907	0.1523788403493125	0.2540204983782394	1.0190100168456417	0.1461698108410932	0.23718638039679563	1.0767806670167301	0.15559544743349532	0.2429443229107383	1.10642851505224	0.07258093242605379	0.42820392702217414	0.6050357703200882	0.05478440217643438	0.4090970787768502	0.8592711167602372	0.14543147132685258	0.32403015255651096	1.0449045399253651	0.17442627366162067	0.2544297060480029	1.078471104563087	0.2082378684740791	0.3230530387644834	1.1309846287938439	0.20364894750730717	0.2997899387650749	1.1545448023485898
29	0.725	0.3066689024309436	0.4584510692288038	1.1151599794634108	0.2931894987842881	0.567355798706065	1.528673728855059	0.2881437339559554	0.6996278743681983	1.8958123127795663	0.28356262536990146	0.5785518247402959	1.9561751360974498	0.34136220293813024	0.577420817479717	1.9350765335643594	0.2732107655751351	0.7947674586811548	1.95339160122372	0.09637321729215761	0.45624740813701126	1.109368641393324	0.114356798147241	0.6170817191965345	1.5302740514597382	0.10822599788174413	0.7139691432576529	1.8837440292390086	0.12024536057686327	0.5586048549193459	1.9300596264506917	0.06789382261611203	0.6034132084197907	1.919736189886288	0.12094602240351682	0.7704858821240936	1.9328821467502664	0.23712637653844007	0.39954515062327406	0.5112240529731706	0.24124481223045258	0.35589859065484863	0.25792564848335586	0.24241269729968185	0.32632994080026667	0.38312902132657867	0.3971784340500029	0.42406018704396997	0.6219437903463291	0.4196952316158203	0.35350250256801496	0.8716387056435266	0.2625972078152631	0.2576883747422675	1.0334743321026638	0.15470175008195236	0.25025604988818073	1.0175933432090212	0.1398542519470408	0.242691658616777	1.07242977000895	0.15594222593604318	0.25118357743271164	1.1099039453931288	0.07242023469916442	0.42766788866625005	0.605018599583966	0.04725736706645378	0.4113961643429208	0.8663639181385504	0.13369836529444157	0.3233368742625668	1.0448769451133422	0.1778631680767306	0.2767085513986455	1.0495861649214464	0.19939002863713046	0.32879981025858696	1.1232705514296646	0.20212130558821437	0.29894712598825046	1.1562204097911108
30	0.75	0.3095607652300636	0.45586281440437176	1.1189966753557534	0.29337396406420035	0.566502122312031	1.5315024789395266	0.28855978202004146	0.6985552244094725	1.8927973817615502	0.28314164825414556	0.5774507969391731	1.9538132685934257	0.3413310206810086	0.5774195464809243	1.9349974329195514	0.27310780836097737	0.7941447014972491	1.9531984128263464	0.09688858196101822	0.4501138683247726	1.1136690032292402	0.11597596863601412	0.6160178686974942	1.5336242336215777	0.10823650690204552	0.7139859628418281	1.8840330932983402	0.12011609486848734	0.5582124432627802	1.9299658021879222	0.06792112581019746	0.6034102409732536	1.9197146265822382	0.12099701648704995	0.7704089956078886	1.932674167554051	0.23715534595580645	0.39942433886453016	0.5113282626363288	0.24137101321123344	0.35578157901496466	0.2589126170898308	0.24329796848340146	0.3301087333878459	0.3829297621894835	0.3966844154994514	0.42333986412507796	0.6218272926106172	0.4194570860318081	0.35379060820638564	0.872363298555817	0.26763640903749136	0.2647920259927685	1.0386422244358595	0.16151493058125704	0.25124851055141406	1.0266633006353925	0.14303663447233447	0.2485624979805452	1.0891048702708495	0.1588018626274717	0.26135408139976385	1.124509707219568	0.07240511291194232	0.42785292624101123	0.6050000323153564	0.03946744996327893	0.4055890268755218	0.8718367371604356	0.12585986449646758	0.31004997146905316	1.0449064456048784	0.19104855162986992	0.2881772415083266	1.0475172799402197	0.20163502079461765	0.3216643125675604	1.1240021217202707	0.19104887553941755	0.2953936857898223	1.155831553362434
